<?xml version="1.0" encoding="UTF-8" standalone="no"?>
<svg
   xmlns:dc="http://purl.org/dc/elements/1.1/"
   xmlns:cc="http://creativecommons.org/ns#"
   xmlns:rdf="http://www.w3.org/1999/02/22-rdf-syntax-ns#"
   xmlns:svg="http://www.w3.org/2000/svg"
   xmlns="http://www.w3.org/2000/svg"
   xmlns:sodipodi="http://sodipodi.sourceforge.net/DTD/sodipodi-0.dtd"
   xmlns:inkscape="http://www.inkscape.org/namespaces/inkscape"
   viewBox="0 0 733.47345 593.66809"
   version="1.1"
   x="0px"
   y="0px"
   id="svg4290"
   inkscape:version="0.91 r13725"
   sodipodi:docname="dont-worry.svg"
   width="733.47345"
   height="593.66809"
   inkscape:export-filename="/home/alex/Downloads/urs-sur-new-3-mega-eyes.png"
   inkscape:export-xdpi="90"
   inkscape:export-ydpi="90">
  <metadata
     id="metadata4308">
    <rdf:RDF>
      <cc:Work
         rdf:about="">
        <dc:format>image/svg+xml</dc:format>
        <dc:type
           rdf:resource="http://purl.org/dc/dcmitype/StillImage" />
        <dc:title></dc:title>
      </cc:Work>
    </rdf:RDF>
  </metadata>
  <defs
     id="defs4306">
    <clipPath
       id="clipPath5102"
       clipPathUnits="userSpaceOnUse">
      <path
         inkscape:connector-curvature="0"
         id="path5104"
         d="m 252.371,552.23 c 0,-51.542 -43.637,-93.332 -97.461,-93.332 -53.828,0 -97.461,41.79 -97.461,93.332 0,51.547 43.633,93.336 97.461,93.336 53.824,0 97.461,-41.789 97.461,-93.336 z" />
    </clipPath>
    <radialGradient
       id="radialGradient5108"
       spreadMethod="pad"
       gradientTransform="matrix(3.7312111,2.5495714,2.7304751,-3.8668763,-3637.748,-392.35104)"
       gradientUnits="userSpaceOnUse"
       r="20.077"
       cy="287.29999"
       cx="806.22998"
       fy="287.29999"
       fx="806.22998">
      <stop
         id="stop5110"
         offset="0"
         style="stop-opacity:1;stop-color:#884200" />
      <stop
         id="stop5112"
         offset="1"
         style="stop-opacity:1;stop-color:#000080" />
    </radialGradient>
    <clipPath
       id="clipPath5128"
       clipPathUnits="userSpaceOnUse">
      <path
         inkscape:connector-curvature="0"
         id="path5130"
         d="m 45.68,505.039 c -17.633,-53.066 52.496,-92.523 108.73,-92.523 56.231,0 137.578,43.582 108.602,92.523 -22.227,-30.148 -62.555,-50.281 -108.602,-50.281 -46.051,0 -86.508,20.137 -108.73,50.281 z" />
    </clipPath>
    <mask
       id="mask5146"
       height="1"
       width="1"
       y="0"
       x="0"
       maskUnits="userSpaceOnUse">
      <g
         id="g5148">
        <g
           id="g5150"
           clip-path="url(#clipPath5136)">
          <path
             inkscape:connector-curvature="0"
             id="path5152"
             style="fill:url(#radialGradient5140);stroke:none"
             d="M 0,0 744,0 744,1052 0,1052 0,0 Z" />
        </g>
      </g>
    </mask>
    <clipPath
       id="clipPath5136"
       clipPathUnits="userSpaceOnUse">
      <path
         inkscape:connector-curvature="0"
         id="path5138"
         d="M 0,0 744,0 744,1052 0,1052 0,0 Z" />
    </clipPath>
    <radialGradient
       id="radialGradient5140"
       spreadMethod="pad"
       gradientUnits="userSpaceOnUse"
       r="27.690001"
       cy="322.56"
       cx="808.27002"
       fy="322.56"
       fx="808.27002">
      <stop
         id="stop5142"
         offset="0"
         style="stop-opacity:1;stop-color:#ffffff" />
      <stop
         id="stop5144"
         offset="1"
         style="stop-opacity:0;stop-color:#ffffff" />
    </radialGradient>
    <radialGradient
       id="radialGradient5156"
       spreadMethod="pad"
       gradientUnits="userSpaceOnUse"
       r="27.690001"
       cy="322.56"
       cx="808.27002"
       fy="322.56"
       fx="808.27002">
      <stop
         id="stop5158"
         offset="0"
         style="stop-opacity:1;stop-color:#ffdf44" />
      <stop
         id="stop5160"
         offset="1"
         style="stop-opacity:1;stop-color:#ffdf44" />
    </radialGradient>
    <clipPath
       id="clipPath5168"
       clipPathUnits="userSpaceOnUse">
      <path
         inkscape:connector-curvature="0"
         id="path5170"
         d="m 225.504,557.93 c 0,-41.012 -30.477,-74.254 -68.066,-74.254 -37.594,0 -68.063,33.246 -68.063,74.254 0,41.011 30.473,74.254 68.063,74.254 37.593,0 68.066,-33.246 68.066,-74.254 z" />
    </clipPath>
    <mask
       id="mask5186"
       height="1"
       width="1"
       y="0"
       x="0"
       maskUnits="userSpaceOnUse">
      <g
         id="g5188">
        <g
           id="g5190"
           clip-path="url(#clipPath5176)">
          <path
             inkscape:connector-curvature="0"
             id="path5192"
             style="fill:url(#linearGradient5180);stroke:none"
             d="M 0,0 744,0 744,1052 0,1052 0,0 Z" />
        </g>
      </g>
    </mask>
    <clipPath
       id="clipPath5176"
       clipPathUnits="userSpaceOnUse">
      <path
         inkscape:connector-curvature="0"
         id="path5178"
         d="M 0,0 744,0 744,1052 0,1052 0,0 Z" />
    </clipPath>
    <linearGradient
       id="linearGradient5180"
       spreadMethod="pad"
       gradientUnits="userSpaceOnUse"
       y2="267.79999"
       x2="793.09003"
       y1="239.14999"
       x1="792.76001">
      <stop
         id="stop5182"
         offset="0"
         style="stop-opacity:1;stop-color:#ffffff" />
      <stop
         id="stop5184"
         offset="1"
         style="stop-opacity:0;stop-color:#ffffff" />
    </linearGradient>
    <linearGradient
       id="linearGradient5196"
       spreadMethod="pad"
       gradientUnits="userSpaceOnUse"
       y2="267.79999"
       x2="793.09003"
       y1="239.14999"
       x1="792.76001">
      <stop
         id="stop5198"
         offset="0"
         style="stop-opacity:1;stop-color:#883e4f" />
      <stop
         id="stop5200"
         offset="1"
         style="stop-opacity:1;stop-color:#883e4f" />
    </linearGradient>
    <clipPath
       id="clipPath5236"
       clipPathUnits="userSpaceOnUse">
      <path
         inkscape:connector-curvature="0"
         id="path5238"
         d="m 496.121,552.23 c 0,-51.542 43.633,-93.332 97.457,-93.332 53.828,0 97.461,41.79 97.461,93.332 0,51.547 -43.633,93.336 -97.461,93.336 -53.824,0 -97.457,-41.789 -97.457,-93.336 z" />
    </clipPath>
    <radialGradient
       id="radialGradient5242"
       spreadMethod="pad"
       gradientTransform="matrix(-4.042218,4.14988e-7,-4.83386e-7,-4.708226,3852.5141,1904.9093)"
       gradientUnits="userSpaceOnUse"
       r="20.077"
       cy="287.29999"
       cx="806.22998"
       fy="287.29999"
       fx="806.22998">
      <stop
         id="stop5244"
         offset="0"
         style="stop-opacity:1;stop-color:#884200" />
      <stop
         id="stop5246"
         offset="1"
         style="stop-opacity:1;stop-color:#a3622d" />
    </radialGradient>
    <clipPath
       id="clipPath5262"
       clipPathUnits="userSpaceOnUse">
      <path
         inkscape:connector-curvature="0"
         id="path5264"
         d="m 702.809,505.039 c 17.632,-53.066 -52.497,-92.523 -108.731,-92.523 -56.23,0 -137.578,43.582 -108.601,92.523 22.226,-30.148 62.554,-50.281 108.601,-50.281 46.051,0 86.508,20.137 108.731,50.281 z" />
    </clipPath>
    <mask
       id="mask5280"
       height="1"
       width="1"
       y="0"
       x="0"
       maskUnits="userSpaceOnUse">
      <g
         id="g5282">
        <g
           id="g5284"
           clip-path="url(#clipPath5270)">
          <path
             inkscape:connector-curvature="0"
             id="path5286"
             style="fill:url(#radialGradient5274);stroke:none"
             d="M 0,0 744,0 744,1052 0,1052 0,0 Z" />
        </g>
      </g>
    </mask>
    <clipPath
       id="clipPath5270"
       clipPathUnits="userSpaceOnUse">
      <path
         inkscape:connector-curvature="0"
         id="path5272"
         d="M 0,0 744,0 744,1052 0,1052 0,0 Z" />
    </clipPath>
    <radialGradient
       id="radialGradient5274"
       spreadMethod="pad"
       gradientUnits="userSpaceOnUse"
       r="27.690001"
       cy="322.56"
       cx="808.27002"
       fy="322.56"
       fx="808.27002">
      <stop
         id="stop5276"
         offset="0"
         style="stop-opacity:1;stop-color:#ffffff" />
      <stop
         id="stop5278"
         offset="1"
         style="stop-opacity:0;stop-color:#ffffff" />
    </radialGradient>
    <radialGradient
       id="radialGradient5290"
       spreadMethod="pad"
       gradientUnits="userSpaceOnUse"
       r="27.690001"
       cy="322.56"
       cx="808.27002"
       fy="322.56"
       fx="808.27002">
      <stop
         id="stop5292"
         offset="0"
         style="stop-opacity:1;stop-color:#ffdf44" />
      <stop
         id="stop5294"
         offset="1"
         style="stop-opacity:1;stop-color:#ffdf44" />
    </radialGradient>
    <clipPath
       id="clipPath5302"
       clipPathUnits="userSpaceOnUse">
      <path
         inkscape:connector-curvature="0"
         id="path5304"
         d="m 522.984,557.93 c 0,-41.012 30.477,-74.254 68.067,-74.254 37.594,0 68.062,33.246 68.062,74.254 0,41.011 -30.472,74.254 -68.062,74.254 -37.594,0 -68.067,-33.246 -68.067,-74.254 z" />
    </clipPath>
    <mask
       id="mask5320"
       height="1"
       width="1"
       y="0"
       x="0"
       maskUnits="userSpaceOnUse">
      <g
         id="g5322">
        <g
           id="g5324"
           clip-path="url(#clipPath5310)">
          <path
             inkscape:connector-curvature="0"
             id="path5326"
             style="fill:url(#linearGradient5180);stroke:none"
             d="M 0,0 744,0 744,1052 0,1052 0,0 Z" />
        </g>
      </g>
    </mask>
    <clipPath
       id="clipPath5310"
       clipPathUnits="userSpaceOnUse">
      <path
         inkscape:connector-curvature="0"
         id="path5312"
         d="M 0,0 744,0 744,1052 0,1052 0,0 Z" />
    </clipPath>
  </defs>
  <sodipodi:namedview
     pagecolor="#ffffff"
     bordercolor="#666666"
     borderopacity="1"
     objecttolerance="10"
     gridtolerance="10"
     guidetolerance="10"
     inkscape:pageopacity="0"
     inkscape:pageshadow="2"
     inkscape:window-width="1337"
     inkscape:window-height="738"
     id="namedview4304"
     showgrid="false"
     showguides="true"
     inkscape:guide-bbox="true"
     fit-margin-top="0"
     fit-margin-left="0"
     fit-margin-right="0"
     fit-margin-bottom="0"
     inkscape:zoom="0.37"
     inkscape:cx="157.30644"
     inkscape:cy="123.62142"
     inkscape:window-x="27"
     inkscape:window-y="0"
     inkscape:window-maximized="1"
     inkscape:current-layer="svg4290" />
  <path
     style="fill:#ac9d93;fill-rule:evenodd;stroke:#6c5d53;stroke-width:10;stroke-linecap:butt;stroke-linejoin:miter;stroke-miterlimit:4;stroke-dasharray:none;stroke-opacity:1"
     d="M 122.76003,160.04707 C -247.85241,694.08523 986.11624,694.35672 608.14689,149.2607 702.27151,15.025413 506.33505,-58.002655 473.31721,76.452663 418.81389,62.560643 358.98977,53.229303 254.89312,81.845843 220.91631,-47.828321 31.611948,27.994343 122.76003,160.04707 Z"
     id="path4850"
     inkscape:connector-curvature="0"
     sodipodi:nodetypes="ccccc" />
  <g
     id="g5047"
     transform="translate(653.64111,-45.954767)">
    <g
       transform="matrix(1.25,0,0,-1.25,-112.00057,454.53439)"
       id="g4892">
      <path
         inkscape:connector-curvature="0"
         id="path4894"
         style="fill:#917c6f;fill-opacity:1;fill-rule:nonzero;stroke:none"
         d="m 0,0 c 0,-50.651 -37.313,-91.712 -133.128,-91.712 -95.814,0 -133.127,41.061 -133.127,91.712 0,50.65 37.313,91.711 133.127,91.711 C -37.313,91.711 0,50.65 0,0" />
    </g>
    <g
       transform="matrix(1.25,0,0,-1.25,-278.41107,366.57302)"
       id="g4896"
       style="fill:#333333;fill-opacity:1">
      <path
         inkscape:connector-curvature="0"
         id="path4898"
         style="fill:#333333;fill-opacity:1;fill-rule:nonzero;stroke:none"
         d="m 0,0 c -16.542,0 -29.954,-5.053 -29.954,-9.453 0,-7.067 20.837,-22.453 29.954,-22.453 9.117,0 29.953,15.386 29.953,22.453 C 29.953,-5.053 16.543,0 0,0" />
    </g>
    <g
       transform="matrix(1.25,0,0,-1.25,-394.80147,317.64726)"
       id="g4908">
      <path
         inkscape:connector-curvature="0"
         id="path4910"
         style="fill:#6c5d53;fill-opacity:1;fill-rule:nonzero;stroke:none"
         d="m 0,0 c 0,19.176 -15.547,34.723 -34.723,34.723 -19.176,0 -34.721,-15.547 -34.721,-34.723 0,-19.176 15.545,-34.722 34.721,-34.722 C -15.547,-34.722 0,-19.176 0,0" />
    </g>
    <g
       transform="matrix(1.25,0,0,-1.25,-75.173194,317.64726)"
       id="g4912"
       style="fill:#6c5d53">
      <path
         inkscape:connector-curvature="0"
         id="path4914"
         style="fill:#6c5d53;fill-opacity:1;fill-rule:nonzero;stroke:none"
         d="m 0,0 c 0,19.176 -15.547,34.723 -34.723,34.723 -19.176,0 -34.721,-15.547 -34.721,-34.723 0,-19.176 15.545,-34.722 34.721,-34.722 C -15.547,-34.722 0,-19.176 0,0" />
    </g>
    <path
       style="fill:#6c5d53;fill-opacity:1;fill-rule:evenodd;stroke:none;stroke-width:1px;stroke-linecap:butt;stroke-linejoin:miter;stroke-opacity:1"
       d="m -500.00406,175.07608 c 15.48376,-16.63325 32.58057,-30.52945 83.70426,-36.64938 -21.16919,-118.542378 -160.49668,-32.04177 -83.70426,36.64938 z"
       id="path5059"
       inkscape:connector-curvature="0"
       sodipodi:nodetypes="ccc" />
    <path
       sodipodi:nodetypes="ccc"
       inkscape:connector-curvature="0"
       id="path5061"
       d="m -74.109788,170.32316 c -15.48376,-16.63325 -32.580572,-30.52945 -83.704262,-36.64938 21.16919,-118.542375 160.4966817,-32.04177 83.704262,36.64938 z"
       style="fill:#6c5d53;fill-opacity:1;fill-rule:evenodd;stroke:none;stroke-width:1px;stroke-linecap:butt;stroke-linejoin:miter;stroke-opacity:1" />
    <g
       transform="matrix(0.64778231,0,0,-0.65850545,-522.73761,636.99592)"
       inkscape:label="AnimeEye8"
       id="g5090" />
  </g>
  <path
     d="m 258.16384,270.69292 c 0,-23.97 -19.43375,-43.40375 -43.40375,-43.40375 -23.97,0 -43.40125,19.43375 -43.40125,43.40375 0,23.97 19.43125,43.4025 43.40125,43.4025 23.97,0 43.40375,-19.4325 43.40375,-43.4025"
     style="fill:#ffffff;fill-opacity:1;fill-rule:nonzero;stroke:none"
     id="path4910-3"
     inkscape:connector-curvature="0" />
  <path
     d="m 577.79212,270.69292 c 0,-23.97 -19.43375,-43.40375 -43.40375,-43.40375 -23.97,0 -43.40125,19.43375 -43.40125,43.40375 0,23.97 19.43125,43.4025 43.40125,43.4025 23.97,0 43.40375,-19.4325 43.40375,-43.4025"
     style="fill:#ffffff;fill-opacity:1;fill-rule:nonzero;stroke:none"
     id="path4914-6"
     inkscape:connector-curvature="0" />
  <path
     inkscape:connector-curvature="0"
     id="path4246"
     style="fill:#3535ff;fill-opacity:1;fill-rule:nonzero;stroke:none"
     d="m 577.79212,278.33721 c 0,-19.74827 -19.43375,-35.75925 -43.40375,-35.75925 -23.97,0 -43.40125,16.01098 -43.40125,35.75925 0,19.74827 19.43125,35.75821 43.40125,35.75821 23.97,0 43.40375,-16.00994 43.40375,-35.75821" />
  <path
     d="m 258.16384,278.33721 c 0,-19.74827 -19.43375,-35.75924 -43.40375,-35.75924 -23.97,0 -43.40125,16.01097 -43.40125,35.75924 0,19.74827 19.43125,35.75821 43.40125,35.75821 23.97,0 43.40375,-16.00994 43.40375,-35.75821"
     style="fill:#3535ff;fill-opacity:1;fill-rule:nonzero;stroke:none"
     id="path4244"
     inkscape:connector-curvature="0" />
  <g
     transform="matrix(0.74295225,0,0,-0.58838369,557.52185,289.61151)"
     id="g4496"
     style="fill:#000000">
    <path
       inkscape:connector-curvature="0"
       id="path4498"
       style="fill:#000000;fill-opacity:1;fill-rule:nonzero;stroke:none"
       d="m 0,0 c 0,19.176 -15.547,34.723 -34.723,34.723 -19.176,0 -34.721,-15.547 -34.721,-34.723 0,-19.176 15.545,-34.722 34.721,-34.722 C -15.547,-34.722 0,-19.176 0,0" />
    <path
       d="m 0,-6.11543 c 0,15.7986171 -15.547,28.607394 -34.723,28.607394 -19.176,0 -34.721,-12.8087769 -34.721,-28.607394 0,-15.798617 15.545,-28.60657 34.721,-28.60657 19.176,0 34.723,12.807953 34.723,28.60657"
       style="fill:#000000;fill-opacity:1;fill-rule:nonzero;stroke:none"
       id="path4500"
       inkscape:connector-curvature="0" />
  </g>
  <path
     inkscape:connector-curvature="0"
     id="path4510"
     style="fill:#000000;fill-opacity:1;fill-rule:nonzero;stroke:none"
     d="m 246.71104,290.50703 c 0,-9.29565 -11.55068,-16.83213 -25.79753,-16.83213 -14.24685,0 -25.79604,7.53648 -25.79604,16.83213 0,9.29565 11.54919,16.83164 25.79604,16.83164 14.24685,0 25.79753,-7.53599 25.79753,-16.83164" />
  <g
     id="g4244"
     transform="matrix(1.25,0,0,-1.25,371.56757,490.40309)"
     style="fill:#333333;fill-opacity:1">
    <path
       d="m 0,0 c -53.717,0 -85.652,24.052 -99.907,38.389 -5.842,5.875 -5.814,15.372 0.06,21.213 5.876,5.841 15.372,5.813 21.213,-0.06 C -65.234,46.065 -40.714,30 0,30 c 40.714,0 65.234,16.065 78.634,29.542 5.841,5.874 15.339,5.901 21.213,0.06 5.874,-5.841 5.902,-15.338 0.06,-21.213 C 85.652,24.052 53.717,0 0,0"
       style="fill:#333333;fill-opacity:1;fill-rule:nonzero;stroke:none"
       id="path4246-3"
       inkscape:connector-curvature="0" />
  </g>
  <g
     id="g4592"
     transform="matrix(1.0456182,0.68496902,0.68496902,-1.0456182,647.96585,541.91482)">
    <path
       d="m 0,0 c 5.204,-19.422 -6.322,-39.387 -25.744,-44.591 -19.423,-5.204 -39.387,6.322 -44.591,25.745 -8.694,32.448 20.509,64.128 20.509,64.128 0,0 41.132,-12.834 49.826,-45.282"
       style="fill:#06bfd7;fill-opacity:1;fill-rule:nonzero;stroke:none"
       id="path4594"
       inkscape:connector-curvature="0" />
  </g>
  <g
     transform="matrix(0.79215526,0.96694883,0.96694883,-0.79215526,130.97628,241.14309)"
     id="g5793">
    <path
       inkscape:connector-curvature="0"
       id="path5795"
       style="fill:#06bfd7;fill-opacity:1;fill-rule:nonzero;stroke:none"
       d="m 0,0 c 5.204,-19.422 -6.322,-39.387 -25.744,-44.591 -19.423,-5.204 -39.387,6.322 -44.591,25.745 -8.694,32.448 20.509,64.128 20.509,64.128 0,0 41.132,-12.834 49.826,-45.282" />
  </g>
</svg>
