<?xml version="1.0" encoding="UTF-8" standalone="no"?>
<svg
   xmlns:dc="http://purl.org/dc/elements/1.1/"
   xmlns:cc="http://creativecommons.org/ns#"
   xmlns:rdf="http://www.w3.org/1999/02/22-rdf-syntax-ns#"
   xmlns:svg="http://www.w3.org/2000/svg"
   xmlns="http://www.w3.org/2000/svg"
   xmlns:sodipodi="http://sodipodi.sourceforge.net/DTD/sodipodi-0.dtd"
   xmlns:inkscape="http://www.inkscape.org/namespaces/inkscape"
   viewBox="0 0 754.24616 665.19818"
   version="1.1"
   x="0px"
   y="0px"
   id="svg4290"
   inkscape:version="0.91 r13725"
   sodipodi:docname="logo-drop.svg"
   width="754.24615"
   height="665.19818"
   inkscape:export-filename="/home/alex/Pictures/LOGO URSSUR/urs-sur-new-logo.png"
   inkscape:export-xdpi="90"
   inkscape:export-ydpi="90">
  <metadata
     id="metadata4308">
    <rdf:RDF>
      <cc:Work
         rdf:about="">
        <dc:format>image/svg+xml</dc:format>
        <dc:type
           rdf:resource="http://purl.org/dc/dcmitype/StillImage" />
        <dc:title></dc:title>
      </cc:Work>
    </rdf:RDF>
  </metadata>
  <defs
     id="defs4306">
    <clipPath
       id="clipPath5102"
       clipPathUnits="userSpaceOnUse">
      <path
         inkscape:connector-curvature="0"
         id="path5104"
         d="m 252.371,552.23 c 0,-51.542 -43.637,-93.332 -97.461,-93.332 -53.828,0 -97.461,41.79 -97.461,93.332 0,51.547 43.633,93.336 97.461,93.336 53.824,0 97.461,-41.789 97.461,-93.336 z" />
    </clipPath>
    <radialGradient
       id="radialGradient5108"
       spreadMethod="pad"
       gradientTransform="matrix(3.7312111,2.5495714,2.7304751,-3.8668763,-3637.748,-392.35104)"
       gradientUnits="userSpaceOnUse"
       r="20.077"
       cy="287.29999"
       cx="806.22998"
       fy="287.29999"
       fx="806.22998">
      <stop
         id="stop5110"
         offset="0"
         style="stop-opacity:1;stop-color:#884200" />
      <stop
         id="stop5112"
         offset="1"
         style="stop-opacity:1;stop-color:#000080" />
    </radialGradient>
    <clipPath
       id="clipPath5128"
       clipPathUnits="userSpaceOnUse">
      <path
         inkscape:connector-curvature="0"
         id="path5130"
         d="m 45.68,505.039 c -17.633,-53.066 52.496,-92.523 108.73,-92.523 56.231,0 137.578,43.582 108.602,92.523 -22.227,-30.148 -62.555,-50.281 -108.602,-50.281 -46.051,0 -86.508,20.137 -108.73,50.281 z" />
    </clipPath>
    <mask
       id="mask5146"
       height="1"
       width="1"
       y="0"
       x="0"
       maskUnits="userSpaceOnUse">
      <g
         id="g5148">
        <g
           id="g5150"
           clip-path="url(#clipPath5136)">
          <path
             inkscape:connector-curvature="0"
             id="path5152"
             style="fill:url(#radialGradient5140);stroke:none"
             d="M 0,0 744,0 744,1052 0,1052 0,0 Z" />
        </g>
      </g>
    </mask>
    <clipPath
       id="clipPath5136"
       clipPathUnits="userSpaceOnUse">
      <path
         inkscape:connector-curvature="0"
         id="path5138"
         d="M 0,0 744,0 744,1052 0,1052 0,0 Z" />
    </clipPath>
    <radialGradient
       id="radialGradient5140"
       spreadMethod="pad"
       gradientUnits="userSpaceOnUse"
       r="27.690001"
       cy="322.56"
       cx="808.27002"
       fy="322.56"
       fx="808.27002">
      <stop
         id="stop5142"
         offset="0"
         style="stop-opacity:1;stop-color:#ffffff" />
      <stop
         id="stop5144"
         offset="1"
         style="stop-opacity:0;stop-color:#ffffff" />
    </radialGradient>
    <radialGradient
       id="radialGradient5156"
       spreadMethod="pad"
       gradientUnits="userSpaceOnUse"
       r="27.690001"
       cy="322.56"
       cx="808.27002"
       fy="322.56"
       fx="808.27002">
      <stop
         id="stop5158"
         offset="0"
         style="stop-opacity:1;stop-color:#ffdf44" />
      <stop
         id="stop5160"
         offset="1"
         style="stop-opacity:1;stop-color:#ffdf44" />
    </radialGradient>
    <clipPath
       id="clipPath5168"
       clipPathUnits="userSpaceOnUse">
      <path
         inkscape:connector-curvature="0"
         id="path5170"
         d="m 225.504,557.93 c 0,-41.012 -30.477,-74.254 -68.066,-74.254 -37.594,0 -68.063,33.246 -68.063,74.254 0,41.011 30.473,74.254 68.063,74.254 37.593,0 68.066,-33.246 68.066,-74.254 z" />
    </clipPath>
    <mask
       id="mask5186"
       height="1"
       width="1"
       y="0"
       x="0"
       maskUnits="userSpaceOnUse">
      <g
         id="g5188">
        <g
           id="g5190"
           clip-path="url(#clipPath5176)">
          <path
             inkscape:connector-curvature="0"
             id="path5192"
             style="fill:url(#linearGradient5180);stroke:none"
             d="M 0,0 744,0 744,1052 0,1052 0,0 Z" />
        </g>
      </g>
    </mask>
    <clipPath
       id="clipPath5176"
       clipPathUnits="userSpaceOnUse">
      <path
         inkscape:connector-curvature="0"
         id="path5178"
         d="M 0,0 744,0 744,1052 0,1052 0,0 Z" />
    </clipPath>
    <linearGradient
       id="linearGradient5180"
       spreadMethod="pad"
       gradientUnits="userSpaceOnUse"
       y2="267.79999"
       x2="793.09003"
       y1="239.14999"
       x1="792.76001">
      <stop
         id="stop5182"
         offset="0"
         style="stop-opacity:1;stop-color:#ffffff" />
      <stop
         id="stop5184"
         offset="1"
         style="stop-opacity:0;stop-color:#ffffff" />
    </linearGradient>
    <linearGradient
       id="linearGradient5196"
       spreadMethod="pad"
       gradientUnits="userSpaceOnUse"
       y2="267.79999"
       x2="793.09003"
       y1="239.14999"
       x1="792.76001">
      <stop
         id="stop5198"
         offset="0"
         style="stop-opacity:1;stop-color:#883e4f" />
      <stop
         id="stop5200"
         offset="1"
         style="stop-opacity:1;stop-color:#883e4f" />
    </linearGradient>
    <clipPath
       id="clipPath5236"
       clipPathUnits="userSpaceOnUse">
      <path
         inkscape:connector-curvature="0"
         id="path5238"
         d="m 496.121,552.23 c 0,-51.542 43.633,-93.332 97.457,-93.332 53.828,0 97.461,41.79 97.461,93.332 0,51.547 -43.633,93.336 -97.461,93.336 -53.824,0 -97.457,-41.789 -97.457,-93.336 z" />
    </clipPath>
    <radialGradient
       id="radialGradient5242"
       spreadMethod="pad"
       gradientTransform="matrix(-4.042218,4.14988e-7,-4.83386e-7,-4.708226,3852.5141,1904.9093)"
       gradientUnits="userSpaceOnUse"
       r="20.077"
       cy="287.29999"
       cx="806.22998"
       fy="287.29999"
       fx="806.22998">
      <stop
         id="stop5244"
         offset="0"
         style="stop-opacity:1;stop-color:#884200" />
      <stop
         id="stop5246"
         offset="1"
         style="stop-opacity:1;stop-color:#a3622d" />
    </radialGradient>
    <clipPath
       id="clipPath5262"
       clipPathUnits="userSpaceOnUse">
      <path
         inkscape:connector-curvature="0"
         id="path5264"
         d="m 702.809,505.039 c 17.632,-53.066 -52.497,-92.523 -108.731,-92.523 -56.23,0 -137.578,43.582 -108.601,92.523 22.226,-30.148 62.554,-50.281 108.601,-50.281 46.051,0 86.508,20.137 108.731,50.281 z" />
    </clipPath>
    <mask
       id="mask5280"
       height="1"
       width="1"
       y="0"
       x="0"
       maskUnits="userSpaceOnUse">
      <g
         id="g5282">
        <g
           id="g5284"
           clip-path="url(#clipPath5270)">
          <path
             inkscape:connector-curvature="0"
             id="path5286"
             style="fill:url(#radialGradient5274);stroke:none"
             d="M 0,0 744,0 744,1052 0,1052 0,0 Z" />
        </g>
      </g>
    </mask>
    <clipPath
       id="clipPath5270"
       clipPathUnits="userSpaceOnUse">
      <path
         inkscape:connector-curvature="0"
         id="path5272"
         d="M 0,0 744,0 744,1052 0,1052 0,0 Z" />
    </clipPath>
    <radialGradient
       id="radialGradient5274"
       spreadMethod="pad"
       gradientUnits="userSpaceOnUse"
       r="27.690001"
       cy="322.56"
       cx="808.27002"
       fy="322.56"
       fx="808.27002">
      <stop
         id="stop5276"
         offset="0"
         style="stop-opacity:1;stop-color:#ffffff" />
      <stop
         id="stop5278"
         offset="1"
         style="stop-opacity:0;stop-color:#ffffff" />
    </radialGradient>
    <radialGradient
       id="radialGradient5290"
       spreadMethod="pad"
       gradientUnits="userSpaceOnUse"
       r="27.690001"
       cy="322.56"
       cx="808.27002"
       fy="322.56"
       fx="808.27002">
      <stop
         id="stop5292"
         offset="0"
         style="stop-opacity:1;stop-color:#ffdf44" />
      <stop
         id="stop5294"
         offset="1"
         style="stop-opacity:1;stop-color:#ffdf44" />
    </radialGradient>
    <clipPath
       id="clipPath5302"
       clipPathUnits="userSpaceOnUse">
      <path
         inkscape:connector-curvature="0"
         id="path5304"
         d="m 522.984,557.93 c 0,-41.012 30.477,-74.254 68.067,-74.254 37.594,0 68.062,33.246 68.062,74.254 0,41.011 -30.472,74.254 -68.062,74.254 -37.594,0 -68.067,-33.246 -68.067,-74.254 z" />
    </clipPath>
    <mask
       id="mask5320"
       height="1"
       width="1"
       y="0"
       x="0"
       maskUnits="userSpaceOnUse">
      <g
         id="g5322">
        <g
           id="g5324"
           clip-path="url(#clipPath5310)">
          <path
             inkscape:connector-curvature="0"
             id="path5326"
             style="fill:url(#linearGradient5180);stroke:none"
             d="M 0,0 744,0 744,1052 0,1052 0,0 Z" />
        </g>
      </g>
    </mask>
    <clipPath
       id="clipPath5310"
       clipPathUnits="userSpaceOnUse">
      <path
         inkscape:connector-curvature="0"
         id="path5312"
         d="M 0,0 744,0 744,1052 0,1052 0,0 Z" />
    </clipPath>
    <filter
       style="color-interpolation-filters:sRGB"
       inkscape:label="Drop Shadow"
       id="filter6440">
      <feFlood
         flood-opacity="0.498039"
         flood-color="rgb(11,14,14)"
         result="flood"
         id="feFlood6442" />
      <feComposite
         in="flood"
         in2="SourceGraphic"
         operator="in"
         result="composite1"
         id="feComposite6444" />
      <feGaussianBlur
         in="composite1"
         stdDeviation="20.1"
         result="blur"
         id="feGaussianBlur6446" />
      <feOffset
         dx="11.6"
         dy="-2.4"
         result="offset"
         id="feOffset6448" />
      <feComposite
         in="SourceGraphic"
         in2="offset"
         operator="over"
         result="fbSourceGraphic"
         id="feComposite6450" />
      <feColorMatrix
         result="fbSourceGraphicAlpha"
         in="fbSourceGraphic"
         values="0 0 0 -1 0 0 0 0 -1 0 0 0 0 -1 0 0 0 0 1 0"
         id="feColorMatrix6656" />
      <feFlood
         id="feFlood6658"
         flood-opacity="0.498039"
         flood-color="rgb(11,14,14)"
         result="flood"
         in="fbSourceGraphic" />
      <feComposite
         id="feComposite6660"
         in2="fbSourceGraphic"
         in="flood"
         operator="out"
         result="composite1" />
      <feGaussianBlur
         id="feGaussianBlur6662"
         in="composite1"
         stdDeviation="19.6"
         result="blur" />
      <feOffset
         id="feOffset6664"
         dx="34.4"
         dy="-6.87831"
         result="offset" />
      <feComposite
         id="feComposite6666"
         in2="fbSourceGraphic"
         in="offset"
         operator="atop"
         result="fbSourceGraphic" />
      <feColorMatrix
         result="fbSourceGraphicAlpha"
         in="fbSourceGraphic"
         values="0 0 0 -1 0 0 0 0 -1 0 0 0 0 -1 0 0 0 0 1 0"
         id="feColorMatrix6668" />
      <feFlood
         id="feFlood6670"
         flood-opacity="0.498039"
         flood-color="rgb(11,14,14)"
         result="flood"
         in="fbSourceGraphic" />
      <feComposite
         id="feComposite6672"
         in2="fbSourceGraphic"
         in="flood"
         operator="out"
         result="composite1" />
      <feGaussianBlur
         id="feGaussianBlur6674"
         in="composite1"
         stdDeviation="19.6"
         result="blur" />
      <feOffset
         id="feOffset6676"
         dx="34.4"
         dy="-6.9"
         result="offset" />
      <feComposite
         id="feComposite6678"
         in2="fbSourceGraphic"
         in="offset"
         operator="atop"
         result="composite2" />
    </filter>
  </defs>
  <sodipodi:namedview
     pagecolor="#ffffff"
     bordercolor="#666666"
     borderopacity="1"
     objecttolerance="10"
     gridtolerance="10"
     guidetolerance="10"
     inkscape:pageopacity="0"
     inkscape:pageshadow="2"
     inkscape:window-width="1337"
     inkscape:window-height="738"
     id="namedview4304"
     showgrid="false"
     showguides="true"
     inkscape:guide-bbox="true"
     fit-margin-top="0"
     fit-margin-left="0"
     fit-margin-right="0"
     fit-margin-bottom="0"
     inkscape:zoom="0.37"
     inkscape:cx="236.16307"
     inkscape:cy="84.923739"
     inkscape:window-x="27"
     inkscape:window-y="0"
     inkscape:window-maximized="1"
     inkscape:current-layer="svg4290" />
  <ellipse
     style="opacity:1;fill:#f80000;fill-opacity:1;stroke:none;stroke-width:10;stroke-miterlimit:4;stroke-dasharray:none;stroke-opacity:0"
     id="path5927"
     cx="377.12219"
     cy="363.64856"
     rx="366.73672"
     ry="280.44571" />
  <path
     style="fill:#ac9d93;fill-rule:evenodd;stroke:#6c5d53;stroke-width:10;stroke-linecap:butt;stroke-linejoin:miter;stroke-miterlimit:4;stroke-dasharray:none;stroke-opacity:1;filter:url(#filter6440)"
     d="M 133.14551,210.47324 C -237.46693,744.5114 996.50172,744.78289 618.53237,199.68687 712.65699,65.451586 516.72053,-7.5764818 483.70269,126.87884 429.19937,112.98682 369.37525,103.65548 265.2786,132.27202 231.30179,2.5978522 41.997427,78.420516 133.14551,210.47324 Z"
     id="path4850"
     inkscape:connector-curvature="0"
     sodipodi:nodetypes="ccccc" />
  <g
     id="g4892"
     transform="matrix(1.25,0,0,-1.25,552.02602,459.0058)">
    <path
       d="m 0,0 c 0,-50.651 -37.313,-91.712 -133.128,-91.712 -95.814,0 -133.127,41.061 -133.127,91.712 0,50.65 37.313,91.711 133.127,91.711 C -37.313,91.711 0,50.65 0,0"
       style="fill:#917c6f;fill-opacity:1;fill-rule:nonzero;stroke:none"
       id="path4894"
       inkscape:connector-curvature="0" />
  </g>
  <g
     style="fill:#1a1a1a;fill-opacity:1"
     id="g4896"
     transform="matrix(1.25,0,0,-1.25,385.61552,371.04443)">
    <path
       d="m 0,0 c -16.542,0 -29.954,-5.053 -29.954,-9.453 0,-7.067 20.837,-22.453 29.954,-22.453 9.117,0 29.953,15.386 29.953,22.453 C 29.953,-5.053 16.543,0 0,0"
       style="fill:#1a1a1a;fill-opacity:1;fill-rule:nonzero;stroke:none"
       id="path4898"
       inkscape:connector-curvature="0" />
  </g>
  <g
     style="fill:#ffffff;fill-opacity:1"
     id="g4908"
     transform="matrix(1.25,0,0,-1.25,269.22512,322.11867)">
    <path
       d="m 0,0 c 0,19.176 -15.547,34.723 -34.723,34.723 -19.176,0 -34.721,-15.547 -34.721,-34.723 0,-19.176 15.545,-34.722 34.721,-34.722 C -15.547,-34.722 0,-19.176 0,0"
       style="fill:#ffffff;fill-opacity:1;fill-rule:nonzero;stroke:none"
       id="path4910"
       inkscape:connector-curvature="0" />
  </g>
  <g
     style="fill:#6c5d53"
     id="g4912"
     transform="matrix(1.25,0,0,-1.25,588.8534,322.11867)">
    <path
       d="m 0,0 c 0,19.176 -15.547,34.723 -34.723,34.723 -19.176,0 -34.721,-15.547 -34.721,-34.723 0,-19.176 15.545,-34.722 34.721,-34.722 C -15.547,-34.722 0,-19.176 0,0"
       style="fill:#ffffff;fill-opacity:1;fill-rule:nonzero;stroke:none"
       id="path4914"
       inkscape:connector-curvature="0" />
    <path
       inkscape:connector-curvature="0"
       id="path4246"
       style="fill:#3535ff;fill-opacity:1;fill-rule:nonzero;stroke:none"
       d="m 0,-6.11543 c 0,15.7986171 -15.547,28.607394 -34.723,28.607394 -19.176,0 -34.721,-12.8087769 -34.721,-28.607394 0,-15.798617 15.545,-28.60657 34.721,-28.60657 19.176,0 34.723,12.807953 34.723,28.60657" />
  </g>
  <g
     id="g4916"
     transform="matrix(1.25,0,0,-1.25,385.63622,534.30305)">
    <path
       d="m 0,0 c -75.367,0 -104.5,39.749 -104.5,59.937 0,5.522 4.477,10 10,10 l 189,0 c 5.523,0 10,-4.478 10,-10 C 104.5,39.749 75.367,0 0,0"
       style="fill:#ffffff;fill-opacity:1;fill-rule:nonzero;stroke:none"
       id="path4918"
       inkscape:connector-curvature="0" />
  </g>
  <path
     sodipodi:nodetypes="ccc"
     inkscape:connector-curvature="0"
     id="path5059"
     d="M 164.02253,179.54749 C 179.50629,162.91424 196.6031,149.01804 247.72679,142.89811 226.5576,24.355728 87.23011,110.85634 164.02253,179.54749 Z"
     style="fill:#6c5d53;fill-opacity:1;fill-rule:evenodd;stroke:none;stroke-width:1px;stroke-linecap:butt;stroke-linejoin:miter;stroke-opacity:1" />
  <path
     style="fill:#6c5d53;fill-opacity:1;fill-rule:evenodd;stroke:none;stroke-width:1px;stroke-linecap:butt;stroke-linejoin:miter;stroke-opacity:1"
     d="M 589.9168,174.79457 C 574.43304,158.16132 557.33623,144.26512 506.21254,138.14519 527.38173,19.602811 666.70922,106.10342 589.9168,174.79457 Z"
     id="path5061"
     inkscape:connector-curvature="0"
     sodipodi:nodetypes="ccc" />
  <g
     id="g5090"
     inkscape:label="AnimeEye8"
     transform="matrix(0.64778231,0,0,-0.65850545,141.28898,641.46733)" />
  <path
     d="m 269.22512,329.76296 c 0,-19.74827 -19.43375,-35.75924 -43.40375,-35.75924 -23.97,0 -43.40125,16.01097 -43.40125,35.75924 0,19.74827 19.43125,35.75821 43.40125,35.75821 23.97,0 43.40375,-16.00994 43.40375,-35.75821"
     style="fill:#3535ff;fill-opacity:1;fill-rule:nonzero;stroke:none"
     id="path4244"
     inkscape:connector-curvature="0" />
  <g
     transform="matrix(0.74295225,0,0,-0.58838369,568.58313,341.03726)"
     id="g4496"
     style="fill:#000000">
    <path
       inkscape:connector-curvature="0"
       id="path4498"
       style="fill:#000000;fill-opacity:1;fill-rule:nonzero;stroke:none"
       d="m 0,0 c 0,19.176 -15.547,34.723 -34.723,34.723 -19.176,0 -34.721,-15.547 -34.721,-34.723 0,-19.176 15.545,-34.722 34.721,-34.722 C -15.547,-34.722 0,-19.176 0,0" />
    <path
       d="m 0,-6.11543 c 0,15.7986171 -15.547,28.607394 -34.723,28.607394 -19.176,0 -34.721,-12.8087769 -34.721,-28.607394 0,-15.798617 15.545,-28.60657 34.721,-28.60657 19.176,0 34.723,12.807953 34.723,28.60657"
       style="fill:#000000;fill-opacity:1;fill-rule:nonzero;stroke:none"
       id="path4500"
       inkscape:connector-curvature="0" />
  </g>
  <g
     style="fill:#000000"
     id="g4506"
     transform="matrix(0.74295225,0,0,-0.58838369,257.77232,338.33456)">
    <path
       d="m 0,0 c 0,19.176 -15.547,34.723 -34.723,34.723 -19.176,0 -34.721,-15.547 -34.721,-34.723 0,-19.176 15.545,-34.722 34.721,-34.722 C -15.547,-34.722 0,-19.176 0,0"
       style="fill:#000000;fill-opacity:1;fill-rule:nonzero;stroke:none"
       id="path4508"
       inkscape:connector-curvature="0" />
    <path
       inkscape:connector-curvature="0"
       id="path4510"
       style="fill:#000000;fill-opacity:1;fill-rule:nonzero;stroke:none"
       d="m 0,-6.11543 c 0,15.7986171 -15.547,28.607394 -34.723,28.607394 -19.176,0 -34.721,-12.8087769 -34.721,-28.607394 0,-15.798617 15.545,-28.60657 34.721,-28.60657 19.176,0 34.723,12.807953 34.723,28.60657" />
  </g>
</svg>
